<?xml version="1.0" standalone="no"?>
<!DOCTYPE svg PUBLIC "-//W3C//DTD SVG 1.1//EN" "http://www.w3.org/Graphics/SVG/1.1/DTD/svg11.dtd" >
<svg xmlns="http://www.w3.org/2000/svg">
<metadata></metadata>
<defs>
<font id="soho_gothic_prolight" horiz-adv-x="1425" >
<font-face units-per-em="2048" ascent="1602" descent="-446" />
<missing-glyph horiz-adv-x="411" />
<glyph unicode="&#xfb01;" horiz-adv-x="1202" d="M39 1012v100h221v152q0 67 5.5 114t22.5 92.5t47 73t81.5 44t124.5 16.5q94 0 200 -23v-94q-87 10 -188 10q-53 0 -84.5 -11.5t-48.5 -41.5t-22 -70t-5 -110v-152h633v-1112h-133v999h-500v-999h-133v999zM891 1329v254h137v-254h-137z" />
<glyph unicode="&#xfb02;" horiz-adv-x="1228" d="M39 1012v100h221v152q0 102 19 167.5t63 104.5t107.5 54.5t160.5 15.5q107 0 310 -23h135v-1583h-135v1483q-119 14 -295 14q-72 0 -111.5 -7t-69.5 -32t-40.5 -70.5t-10.5 -123.5v-152h342v-113h-342v-999h-133v999z" />
<glyph unicode="&#xfb03;" horiz-adv-x="1867" d="M41 1012v100h219v152q0 66 5.5 112.5t22.5 92.5t47 73.5t81.5 44.5t124.5 17q96 0 202 -23v-94q-88 10 -188 10t-130 -48.5t-30 -184.5v-152h514v152q0 55 3.5 95t14 81t30 69t49.5 50.5t76 33.5t106 11q97 0 203 -23v-94q-88 10 -189 10q-100 0 -130 -48.5t-30 -184.5 v-152h652v-1112h-135v999h-517v-999h-133v999h-514v-999h-135v999zM1559 1329v254h137v-254h-137z" />
<glyph unicode="&#xfb04;" horiz-adv-x="1875" d="M41 1012v100h219v152q0 67 5.5 114t23 92.5t48.5 73t82.5 44t123.5 16.5q105 0 200 -23v-94q-88 10 -186 10q-102 0 -132 -47.5t-30 -185.5v-152h514v152q0 101 18.5 166t61.5 104.5t107.5 55.5t163.5 16q50 0 111.5 -4.5t127 -11.5t68.5 -7h135v-1583h-135v1483 q-150 14 -291 14q-74 0 -115 -7.5t-70 -33t-39 -70t-10 -122.5v-152h342v-113h-342v-999h-133v999h-514v-999h-135v999z" />
<glyph horiz-adv-x="2048" />
<glyph horiz-adv-x="2048" />
<glyph unicode="&#xd;" horiz-adv-x="2048" />
<glyph unicode=" "  horiz-adv-x="411" />
<glyph unicode="&#x09;" horiz-adv-x="411" />
<glyph unicode="&#xa0;" horiz-adv-x="411" />
<glyph unicode="!" horiz-adv-x="473" d="M164 1567h145l-12 -1176h-119zM168 0v260h137v-260h-137z" />
<glyph unicode="&#x22;" horiz-adv-x="643" d="M41 1063l39 491h135l-72 -491h-102zM428 1063l39 491h135l-72 -491h-102z" />
<glyph unicode="#" horiz-adv-x="1492" d="M170 420v117h231l48 434h-279v116h291l49 435h121l-47 -435h387l49 435h121l-47 -435h239v-116h-252l-47 -434h299v-117h-313l-47 -420h-121l45 420h-387l-45 -420h-123l47 420h-219zM524 537h387l47 434h-387z" />
<glyph unicode="$" horiz-adv-x="1212" d="M137 1194q0 320 404 348v209h131v-207q175 -2 360 -35v-110q-229 26 -407 26q-173 0 -262 -52.5t-89 -178.5q0 -102 58.5 -166.5t195.5 -126.5l207 -94q187 -85 267.5 -180t80.5 -252q0 -183 -104 -283t-307 -115v-221h-131v217q-209 5 -371 37v109q230 -27 422 -27 q174 0 263 66.5t89 216.5q0 111 -58 177t-212 138l-207 96q-167 76 -248.5 168.5t-81.5 239.5z" />
<glyph unicode="%" horiz-adv-x="2078" d="M121 1018v115q0 198 83.5 304.5t256.5 106.5q340 0 340 -411v-115q0 -412 -340 -412q-172 0 -256 107.5t-84 304.5zM242 1018q0 -168 54.5 -237.5t164.5 -69.5t164.5 69.5t54.5 237.5v115q0 168 -55 238.5t-164 70.5t-164 -72t-55 -237v-115zM487 0l971 1522h137 l-970 -1522h-138zM1282 387v119q0 205 89 306t253 101q162 0 251 -101.5t89 -305.5v-119q0 -205 -89 -307.5t-251 -102.5q-163 0 -252.5 102.5t-89.5 307.5zM1403 387q0 -168 58.5 -236.5t162.5 -68.5q49 0 86.5 14.5t68.5 47.5t47.5 94.5t16.5 148.5v119q0 87 -16.5 148.5 t-47.5 94.5t-68.5 47.5t-86.5 14.5q-104 0 -162.5 -68.5t-58.5 -236.5v-119z" />
<glyph unicode="&#x26;" horiz-adv-x="1490" d="M123 365v12q2 131 68.5 225t220.5 178l-13 15q-60 61 -94 100.5t-68 92t-48.5 108.5t-14.5 123q0 327 436 327q224 0 416 -37v-108q-226 24 -410 24q-70 0 -120.5 -8.5t-94.5 -31t-66 -65.5t-22 -108q0 -66 23 -121.5t61 -101.5t117 -127l543 -547q88 149 88 463l-127 8 v105h381v-105l-127 -8q0 -355 -127 -549l205 -204v-25h-160l-131 131q-161 -158 -451 -158q-104 0 -189 21.5t-153 66.5t-105.5 122.5t-37.5 181.5zM262 365q0 -73 26.5 -127t74 -85.5t109 -47t136.5 -15.5q243 0 369 123l-479 483q-131 -67 -183.5 -136.5t-52.5 -182.5v-12 z" />
<glyph unicode="'" horiz-adv-x="256" d="M41 1063l39 491h135l-72 -491h-102z" />
<glyph unicode="(" horiz-adv-x="677" d="M135 541v14q0 162 30 315.5t81.5 274.5t106 212.5t116.5 164.5h129q-155 -201 -241.5 -434t-86.5 -533v-14q0 -300 86.5 -531.5t241.5 -433.5h-129q-62 72 -116.5 163.5t-106 212t-81.5 274t-30 315.5z" />
<glyph unicode=")" horiz-adv-x="677" d="M76 -424q157 202 244.5 434t87.5 531v14q0 300 -87.5 532.5t-244.5 434.5h133q62 -73 116.5 -164.5t105 -212.5t80.5 -274.5t30 -315.5v-14q0 -162 -30 -315.5t-80.5 -274t-105.5 -212t-116 -163.5h-133z" />
<glyph unicode="*" horiz-adv-x="1054" d="M135 1251l35 113l176 -55q22 -6 131 -49q-8 86 -8 135v188h119v-188q0 -77 -8 -140q95 40 129 52l178 59l37 -115l-179 -57q-102 -31 -135 -37q36 -36 90 -106l109 -150l-96 -70l-109 150q-32 41 -78 117q-43 -73 -73 -115l-109 -152l-96 70l108 152q43 60 86 106 q-44 8 -131 35z" />
<glyph unicode="+" d="M199 745v113h458v457h113v-457h455v-113h-455v-456h-113v456h-458z" />
<glyph unicode="," horiz-adv-x="497" d="M63 -178l168 457h156l-201 -457h-123z" />
<glyph unicode="-" horiz-adv-x="808" d="M154 537v114h501v-114h-501z" />
<glyph unicode="." horiz-adv-x="436" d="M152 0v279h133v-279h-133z" />
<glyph unicode="/" horiz-adv-x="829" d="M41 0l612 1522h129l-612 -1522h-129z" />
<glyph unicode="0" horiz-adv-x="1284" d="M125 641v238q0 339 133.5 503t384.5 164q250 0 384 -164t134 -503v-238q0 -339 -134 -503.5t-384 -164.5q-251 0 -384.5 164.5t-133.5 503.5zM262 641q0 -551 381 -551t381 551v238q0 548 -381 548t-381 -548v-238z" />
<glyph unicode="1" horiz-adv-x="1019" d="M119 1280v121l360 131h103v-1411l323 -8v-113h-784v113l325 8v1270z" />
<glyph unicode="2" horiz-adv-x="1196" d="M135 0v147q0 91 10 161t35.5 129.5t58.5 105t90 92t119 86t156 90.5q139 77 208.5 132.5t96.5 110.5t27 136q0 129 -89.5 183t-295.5 54q-187 0 -387 -32v108q209 43 393 43q264 0 390 -85.5t126 -270.5q0 -149 -82.5 -253.5t-310.5 -227.5q-108 -58 -173 -101 t-115.5 -89t-74.5 -99t-35.5 -116t-11.5 -154v-29h787v-121h-922z" />
<glyph unicode="3" horiz-adv-x="1196" d="M147 14v105q33 -3 116.5 -11.5t150.5 -13t133 -4.5q206 0 295.5 70.5t89.5 240.5v60q0 47 -4.5 81.5t-21.5 72.5t-46 62t-81.5 40t-125.5 16h-450v117h450q72 0 124.5 16t82 40t46 62.5t21.5 74t5 83.5v29q0 102 -34 159.5t-117.5 85t-233.5 27.5q-156 0 -395 -26v106 q46 10 170 24.5t227 14.5q276 0 398 -90t122 -301v-29q0 -261 -205 -335q205 -72 205 -330v-60q0 -224 -127.5 -326t-392.5 -102q-104 0 -220.5 14t-181.5 27z" />
<glyph unicode="4" horiz-adv-x="1306" d="M92 424v139l717 961h158v-981h243v-119h-243v-424h-138v424h-737zM231 543h598v798z" />
<glyph unicode="5" horiz-adv-x="1189" d="M115 18v109q11 -1 57 -7t79 -10t82 -8.5t98 -7t95 -2.5q226 0 315 76.5t89 253.5v55q0 175 -93.5 241t-326.5 66h-363l66 738h793v-123h-676l-45 -496h231q284 0 416.5 -98t132.5 -328v-55q0 -233 -129.5 -341t-407.5 -108q-121 0 -236 15t-177 30z" />
<glyph unicode="6" horiz-adv-x="1282" d="M125 582v393q0 143 27.5 245t90.5 177t171.5 112t265.5 37q111 0 229.5 -14.5t184.5 -28.5v-106q-240 30 -412 30q-107 0 -183 -21t-121.5 -57t-71.5 -95.5t-35 -123t-9 -153.5v-96q88 24 198.5 38.5t192.5 14.5t149 -9t135 -35.5t114 -70t75 -118.5t29 -175v-73 q0 -111 -32 -198t-82 -139t-118.5 -85t-134.5 -45.5t-137 -12.5q-92 0 -164 14t-142.5 54t-116.5 106t-74.5 176.5t-28.5 258.5zM262 571q0 -137 27 -232.5t80 -148.5t121 -75.5t161 -22.5q166 0 266.5 89.5t100.5 271.5v69q0 75 -19 129.5t-49.5 86.5t-80 51t-100.5 25.5 t-120 6.5q-210 0 -387 -47v-203z" />
<glyph unicode="7" horiz-adv-x="1150" d="M111 1399v123h954v-146l-672 -1376h-153l696 1399h-825z" />
<glyph unicode="8" horiz-adv-x="1318" d="M129 434v15q0 134 47 218.5t146 125.5q-187 75 -187 327v21q0 94 26.5 165t71 116t112 72.5t141.5 38.5t167 11h11q93 0 167 -11t141.5 -38.5t112 -72.5t71 -116t26.5 -165v-21q0 -252 -187 -327q99 -41 146 -125t47 -217v-19q0 -84 -14 -151.5t-38 -115t-62 -82.5 t-79.5 -56t-98 -33t-110 -16.5t-122.5 -4.5h-11q-68 0 -122 4.5t-110.5 17t-98 33.5t-79.5 56t-62 83t-38 115.5t-14 151.5zM266 434q0 -85 17 -146t47.5 -99t80.5 -60.5t106.5 -30.5t135.5 -8h11q65 0 114.5 5.5t95 19.5t76.5 39t55 62.5t35 91.5t11 124v19 q-1 70 -12.5 119t-38.5 87.5t-75.5 57t-119.5 18.5h-293q-137 0 -191.5 -71t-54.5 -213v-15zM270 1120q0 -61 11 -106.5t37 -83.5t75 -58t119 -20h293q135 0 188.5 70t53.5 198v21q0 84 -25 141t-76.5 88.5t-118.5 44t-163 12.5h-11q-96 0 -163 -12.5t-118.5 -44 t-76.5 -88.5t-25 -141v-21z" />
<glyph unicode="9" horiz-adv-x="1282" d="M125 991v76q0 111 32 197.5t82 138t118.5 85t134.5 46t137 12.5q64 0 118 -7t109 -24.5t98.5 -47t82 -76.5t64 -109.5t40 -149.5t14.5 -194v-395q0 -143 -27.5 -245t-90.5 -177.5t-171.5 -112.5t-265.5 -37q-111 0 -229.5 14.5t-184.5 28.5v109q264 -33 410 -33 q90 0 158 13.5t114 42.5t76 65.5t46 90.5t22 109t6 130v96q-87 -24 -197 -37.5t-196 -13.5q-83 0 -149 8.5t-134 34.5t-113.5 69.5t-74.5 118t-29 174.5zM260 995q0 -75 19 -129.5t50 -86.5t80.5 -51t101 -25.5t120.5 -6.5q198 0 387 47v203q0 111 -18 194t-50.5 137.5 t-82 88t-107 47.5t-131.5 14q-108 0 -189 -36t-130.5 -118.5t-49.5 -205.5v-72z" />
<glyph unicode=":" horiz-adv-x="444" d="M158 0v279h135v-279h-135zM158 840v278h135v-278h-135z" />
<glyph unicode=";" horiz-adv-x="483" d="M20 -178l168 457h156l-203 -457h-121zM193 840v278h135v-278h-135z" />
<glyph unicode="&#x3c;" d="M326 801l585 514h187l-588 -514l588 -516h-187z" />
<glyph unicode="=" d="M254 516v113h915v-113h-915zM254 977v113h915v-113h-915z" />
<glyph unicode="&#x3e;" d="M326 285l585 516l-585 514h184l586 -514l-586 -516h-184z" />
<glyph unicode="?" horiz-adv-x="927" d="M66 1460v105q166 39 319 39q201 0 307.5 -75.5t106.5 -254.5v-12q0 -107 -44.5 -193t-166.5 -207q-73 -72 -113 -119t-61.5 -92.5t-27 -81.5t-5.5 -96v-80h-131v80q0 69 6.5 114.5t28.5 99t66 108t116 123.5q118 113 156.5 183t38.5 161v12q0 122 -71 166.5t-216 44.5 q-120 0 -309 -25zM250 0v264h135v-264h-135z" />
<glyph unicode="@" horiz-adv-x="1685" d="M117 365q0 125 22 272q58 358 246 529t539 171q330 0 492.5 -148t162.5 -417q0 -653 -715 -653q-208 0 -301.5 74.5t-93.5 238.5q0 131 18.5 228t51.5 159t84.5 100t110.5 53t136 15q153 0 299 -35l-71 -702q375 75 375 524q0 471 -549 471q-300 0 -464 -147.5 t-216 -470.5q-21 -140 -21 -262q0 -244 134.5 -371t422.5 -127q96 0 200 7t142 13v-77q-170 -31 -342 -31q-334 0 -498.5 151t-164.5 435zM592 432q0 -117 61.5 -163t208.5 -46q37 0 107 4l63 637q-89 13 -160 13q-53 0 -92.5 -9.5t-76.5 -37.5t-60 -76.5t-37 -129 t-14 -192.5z" />
<glyph unicode="A" horiz-adv-x="1316" d="M47 0l516 1522h191l514 -1522h-146l-178 539h-577l-181 -539h-139zM408 664h493l-172 510q-38 111 -65 235h-15q-30 -125 -65 -235z" />
<glyph unicode="B" horiz-adv-x="1277" d="M174 0v1522l112.5 2.5t132 2.5t146.5 1q119 0 207.5 -10t164 -36t122 -69t72.5 -110.5t26 -159.5v-19q0 -53 -12.5 -101.5t-39 -94.5t-75.5 -82t-115 -55q89 -25 146.5 -80.5t80.5 -121.5t23 -147v-28q0 -99 -28 -172.5t-77.5 -121t-127 -76.5t-166.5 -40.5t-205 -11.5 q-93 0 -387 8zM311 121q156 -8 250 -8q122 0 204.5 13.5t144 47t90 92.5t28.5 148v28q-1 51 -10 91t-33.5 78.5t-65 64.5t-107.5 41.5t-157 15.5h-344v-612zM311 852h344q89 0 155 15t105.5 39t63.5 60.5t32.5 74t8.5 83.5v19q0 56 -12.5 97.5t-39.5 70.5t-62 47.5 t-89.5 28.5t-112.5 14t-139 4q-86 0 -254 -4v-549z" />
<glyph unicode="C" horiz-adv-x="1126" d="M113 674v174q0 158 28 278t78 199t125.5 129t164.5 71t202 21q159 0 354 -33v-112q-181 22 -354 22q-240 0 -350.5 -131.5t-110.5 -443.5v-174q0 -312 110.5 -445t350.5 -133q186 0 354 23v-115q-198 -31 -354 -31q-113 0 -202 21t-164.5 71t-125.5 130t-78 200.5 t-28 278.5z" />
<glyph unicode="D" horiz-adv-x="1349" d="M174 0v1522q246 6 410 6q337 0 495 -170t158 -506v-180q0 -339 -155.5 -509.5t-497.5 -170.5q-110 0 -410 8zM311 121q156 -8 262 -8q268 0 397.5 129t129.5 430v180q0 153 -33 260t-101 171.5t-164 93t-229 28.5q-102 0 -262 -4v-1280z" />
<glyph unicode="E" horiz-adv-x="1163" d="M174 0v1522h877v-123h-740v-543h690v-125h-690v-610h740v-121h-877z" />
<glyph unicode="F" horiz-adv-x="1142" d="M174 0v1522h877v-123h-740v-543h690v-125h-690v-731h-137z" />
<glyph unicode="G" horiz-adv-x="1267" d="M113 668v186q0 133 21.5 240t62 182t94 128t122.5 84t142 44.5t158 13.5q171 0 422 -35v-112q-264 24 -404 24q-92 0 -162.5 -15t-132 -53.5t-101.5 -102t-62.5 -163.5t-22.5 -235v-186q0 -161 31.5 -273t95.5 -176.5t149.5 -92.5t202.5 -28q158 0 268 11v675h138v-774 q-238 -37 -422 -37q-600 0 -600 695z" />
<glyph unicode="H" horiz-adv-x="1449" d="M174 0v1522h137v-650h828v650h137v-1522h-137v748h-828v-748h-137z" />
<glyph unicode="I" horiz-adv-x="491" d="M178 0v1522h137v-1522h-137z" />
<glyph unicode="J" horiz-adv-x="491" d="M-113 -317q45 -2 133 -2q54 0 86 11.5t47.5 40.5t20 61.5t4.5 90.5v1637h135v-1637q0 -82 -12.5 -138t-43.5 -99t-87 -63.5t-141 -20.5q-74 0 -142 14v105z" />
<glyph unicode="K" horiz-adv-x="1230" d="M184 0v1522h138v-723l698 723h178l-723 -748l725 -774h-188l-690 745v-745h-138z" />
<glyph unicode="L" horiz-adv-x="1087" d="M174 0v1522h137v-1401h725v-121h-862z" />
<glyph unicode="M" horiz-adv-x="1619" d="M174 0v1522h180l363 -699q8 -16 90 -182h4q13 27 90 184l367 697h178v-1522h-135v1104q0 65 8 237h-4q-8 -17 -103 -202l-317 -598h-172l-313 598q-16 33 -103 202h-4q6 -129 6 -237v-1104h-135z" />
<glyph unicode="N" horiz-adv-x="1417" d="M174 0v1522h195l643 -1170q25 -46 104 -209h2q-6 144 -6 267v1112h131v-1524h-194l-641 1182q-76 144 -109 213h-2q6 -126 6 -263v-1130h-129z" />
<glyph unicode="O" horiz-adv-x="1374" d="M113 680v160q0 355 148 530.5t427 175.5q277 0 425.5 -176t148.5 -530v-160q0 -354 -148.5 -530.5t-425.5 -176.5q-279 0 -427 176t-148 531zM250 680q0 -584 438 -584q99 0 176 30t136.5 96t91.5 181.5t32 276.5v160q0 161 -31.5 276t-91.5 181t-137 96t-176 30 q-79 0 -144 -18t-120.5 -60.5t-93.5 -109t-59 -166.5t-21 -229v-160z" />
<glyph unicode="P" horiz-adv-x="1208" d="M170 0v1524q41 1 114.5 2.5t134.5 2.5t118 1q113 0 199.5 -12t161.5 -42t123.5 -79.5t76 -125.5t28.5 -179v-27q0 -103 -27.5 -180t-77 -127.5t-125 -82t-164 -44.5t-200.5 -13q-105 0 -225 3v-621h-137zM307 741q82 -2 225 -2q241 0 349 71.5t108 254.5v27 q-1 94 -27.5 155.5t-85 96.5t-138.5 49t-201 14q-41 0 -230 -6v-660z" />
<glyph unicode="Q" horiz-adv-x="1374" d="M113 680v160q0 355 148 530.5t427 175.5q277 0 425.5 -176t148.5 -530v-160q0 -332 -131 -506.5t-375 -196.5v-118q0 -82 28 -112t123 -30h174v-94q-88 -16 -209 -16q-133 0 -192 55.5t-59 196.5v118q-246 22 -377 196t-131 507zM250 680q0 -584 438 -584q99 0 176 30 t136.5 96t91.5 181.5t32 276.5v160q0 161 -31.5 276t-91.5 181t-137 96t-176 30q-79 0 -144 -18t-120.5 -60.5t-93.5 -109t-59 -166.5t-21 -229v-160z" />
<glyph unicode="R" horiz-adv-x="1273" d="M174 0v1522q193 8 356 8q112 0 200.5 -12.5t165 -43t127 -80t79 -126t28.5 -178.5v-17q0 -180 -76.5 -280.5t-230.5 -143.5l396 -649h-162l-379 621q-68 -3 -143 -3q-133 0 -224 3v-621h-137zM311 741q68 -2 224 -2q240 0 348 75t108 259v17q0 93 -27.5 155t-87.5 97.5 t-142.5 50t-203.5 14.5q-9 0 -219 -6v-660z" />
<glyph unicode="S" horiz-adv-x="1171" d="M113 1194q0 180 121.5 266t361.5 86q222 0 412 -37v-110q-229 26 -408 26q-173 0 -261.5 -52.5t-88.5 -178.5q0 -101 58.5 -166t195.5 -127l207 -94q187 -85 267.5 -180t80.5 -252q0 -198 -124 -300t-368 -102q-120 0 -239 12t-183 25v109q230 -27 422 -27 q174 0 263.5 66.5t89.5 216.5q0 110 -58.5 176.5t-212.5 138.5l-207 96q-166 76 -247.5 168.5t-81.5 239.5z" />
<glyph unicode="T" horiz-adv-x="1245" d="M61 1399v123h1123v-123h-494v-1399h-137v1399h-492z" />
<glyph unicode="U" horiz-adv-x="1398" d="M164 653v869h137v-854q0 -308 87.5 -439t311.5 -131q222 0 311 132.5t89 437.5v854h135v-869q0 -341 -130.5 -509.5t-404.5 -168.5q-277 0 -406.5 168t-129.5 510z" />
<glyph unicode="V" horiz-adv-x="1345" d="M61 1522h146l407 -1205q11 -31 21 -66.5t22 -82.5t17 -64h4q33 140 59 213l406 1205h141l-520 -1522h-184z" />
<glyph unicode="W" horiz-adv-x="1810" d="M92 1522h146l223 -1172q33 -184 43 -241h6q9 40 27.5 120.5t27.5 120.5l234 942h217l235 -948q52 -227 54 -235h8q13 89 41 241l223 1172h141l-299 -1522h-219l-252 1008q-6 29 -19.5 84t-19.5 84h-6q-7 -28 -20.5 -83.5t-20.5 -84.5l-250 -1008h-221z" />
<glyph unicode="X" horiz-adv-x="1339" d="M66 0l516 772l-512 750h166l440 -652l434 652h154l-514 -756l524 -766h-168l-449 664l-438 -664h-153z" />
<glyph unicode="Y" horiz-adv-x="1230" d="M55 1522h150l307 -568q74 -141 102 -209h9q15 36 106 209l305 568h142l-492 -908v-614h-137v614z" />
<glyph unicode="Z" horiz-adv-x="1236" d="M96 0v150l867 1249h-834v123h981v-150l-864 -1251h895v-121h-1045z" />
<glyph unicode="[" horiz-adv-x="780" d="M225 -426v1948h447v-117h-314v-1718h314v-113h-447z" />
<glyph unicode="\" horiz-adv-x="878" d="M59 1522h129l625 -1522h-131z" />
<glyph unicode="]" horiz-adv-x="780" d="M106 -313h314v1720h-314v115h447v-1948h-447v113z" />
<glyph unicode="^" d="M219 831l381 635h223l379 -635h-147l-344 566l-340 -566h-152z" />
<glyph unicode="_" horiz-adv-x="1177" d="M-18 -111h1198v-92h-1198v92z" />
<glyph unicode="`" horiz-adv-x="882" d="M125 1577h164l276 -315h-137z" />
<glyph unicode="a" horiz-adv-x="1087" d="M106 293v31q0 84 22.5 144t62 98t104.5 60t140 30t179 8h189v94q0 86 -10.5 134.5t-44.5 80.5t-89 42.5t-151 10.5q-130 0 -326 -22v98q13 2 58.5 10.5t66 11.5t59 8t75 7t77.5 2q132 0 215 -22t128 -72.5t61 -117t16 -171.5v-758h-129v80q-178 -107 -371 -107 q-165 0 -248.5 78t-83.5 242zM240 285q0 -111 57.5 -159t167.5 -48q94 0 187 31.5t151 68.5v381h-189q-86 0 -142.5 -5.5t-104 -20t-73.5 -41t-40 -67.5t-14 -101v-39z" />
<glyph unicode="b" horiz-adv-x="1144" d="M164 -2v1585h133v-508q144 68 305 68q223 0 326.5 -118.5t103.5 -381.5v-143q0 -281 -116.5 -404t-368.5 -123q-158 0 -383 25zM297 104q120 -12 252 -12q187 0 267.5 89.5t80.5 318.5v143q0 214 -70.5 297.5t-238.5 83.5q-62 0 -145 -13.5t-146 -43.5v-863z" />
<glyph unicode="c" horiz-adv-x="954" d="M113 496v122q0 268 109 395.5t335 127.5q135 0 305 -35v-102q-193 20 -287 20q-83 0 -140.5 -18t-101.5 -62.5t-64.5 -125t-20.5 -200.5v-122q0 -123 20.5 -203.5t64 -125t100.5 -62t142 -17.5q87 0 287 23v-103q-162 -35 -305 -35q-229 0 -336.5 126t-107.5 397z" />
<glyph unicode="d" horiz-adv-x="1144" d="M113 479v137q0 148 31.5 251.5t94 162.5t144 85t192.5 26q119 0 273 -25v467h133v-1583h-129v63q-163 -90 -330 -90q-205 0 -307 122t-102 384zM248 479q0 -210 69.5 -300.5t227.5 -90.5q135 0 303 82v834q-167 22 -264 22q-88 0 -146.5 -17.5t-103.5 -62.5t-65.5 -126 t-20.5 -204v-137z" />
<glyph unicode="e" horiz-adv-x="1144" d="M113 514v78q0 549 460 549q238 0 350.5 -141.5t112.5 -421.5v-68h-790v-25q0 -101 16 -170t56 -122t114 -78t186 -25q183 0 381 31v-107q-182 -41 -385 -41q-142 0 -238 31.5t-154.5 100.5t-83.5 167.5t-25 241.5zM246 623h651v18q0 64 -7.5 116.5t-29.5 103.5t-57 86 t-93.5 56t-136.5 21t-137 -22t-94 -57t-57 -86.5t-29.5 -103t-7.5 -114.5z" />
<glyph unicode="f" horiz-adv-x="802" d="M41 1010v102h219v152q0 65 5.5 111t22.5 92t47 74t82 45.5t124 17.5q106 0 200 -23v-94q-118 10 -184 10q-103 0 -132.5 -48t-29.5 -185v-152h340v-113h-340v-999h-135v999z" />
<glyph unicode="g" horiz-adv-x="1146" d="M115 485v144q0 265 116.5 388.5t376.5 123.5q148 0 375 -29v-1153q0 -104 -19 -176t-66.5 -126t-132 -80t-210.5 -26q-181 0 -387 35v99q230 -19 387 -19q92 0 149 15.5t90 53t44.5 89t11.5 135.5v55q-144 -41 -266 -41q-239 0 -354 118.5t-115 393.5zM248 485 q0 -221 77 -309t261 -88q133 0 264 39v881q-119 18 -242 18q-198 0 -279 -92t-81 -305v-144z" />
<glyph unicode="h" horiz-adv-x="1187" d="M164 0v1583h133v-545q201 103 379 103q186 0 271 -105t85 -331v-705h-135v700q0 184 -55 254t-191 70q-166 0 -354 -94v-930h-133z" />
<glyph unicode="i" horiz-adv-x="483" d="M174 0v1112h135v-1112h-135zM174 1329v254h137v-254h-137z" />
<glyph unicode="j" horiz-adv-x="483" d="M-76 -340q82 -4 121 -4q80 0 104.5 40t24.5 152v1264h135v-1264q0 -163 -54.5 -230t-197.5 -67q-59 0 -133 9v100zM174 1327v256h137v-256h-137z" />
<glyph unicode="k" horiz-adv-x="997" d="M164 0v1583h133v-979l491 508h177l-519 -526l523 -586h-178l-494 563v-563h-133z" />
<glyph unicode="l" horiz-adv-x="475" d="M172 0v1583h133v-1583h-133z" />
<glyph unicode="m" horiz-adv-x="1710" d="M164 0v1112h133v-88q169 117 338 117q182 0 248 -125q186 125 358 125q62 0 111 -13t81.5 -33t56 -53t35.5 -63.5t19 -75.5t8.5 -78.5t1.5 -81.5v-743h-135v743q0 61 -3 98t-13.5 76t-31 59.5t-57 34t-89.5 13.5q-141 0 -314 -104q15 -76 15 -177v-743h-135v743 q0 63 -2.5 99.5t-12.5 76t-29.5 59.5t-54.5 33t-86 13q-130 0 -309 -104v-920h-133z" />
<glyph unicode="n" horiz-adv-x="1187" d="M164 0v1112h133v-90q222 119 383 119q106 0 176 -27t108 -85t53 -134.5t15 -189.5v-705h-135v705q0 181 -48.5 250t-180.5 69q-148 0 -371 -106v-918h-133z" />
<glyph unicode="o" horiz-adv-x="1155" d="M115 498v118q0 525 463 525q462 0 462 -525v-118q0 -525 -462 -525q-463 0 -463 525zM248 498q0 -214 78.5 -311t251.5 -97t251 97t78 311v118q0 214 -78 310t-251 96q-172 0 -251 -96.5t-79 -309.5v-118z" />
<glyph unicode="p" horiz-adv-x="1146" d="M164 -428v1540h127v-80q75 48 166.5 78.5t179.5 30.5q203 0 299 -125.5t96 -409.5v-82q0 -123 -22 -217.5t-61 -157.5t-99 -102.5t-130.5 -56.5t-160.5 -17q-99 0 -264 27v-428h-131zM295 113q170 -25 264 -25q86 0 146 20t105.5 68t67 134t21.5 214v82q0 230 -65 323 t-216 93q-130 0 -323 -94v-815z" />
<glyph unicode="q" horiz-adv-x="1144" d="M113 508v82q0 161 28.5 267.5t92 169.5t152 88.5t220.5 25.5q171 0 375 -27v-1542h-133v471q-155 -70 -330 -70q-213 0 -309 122.5t-96 412.5zM246 508q0 -234 65.5 -325t227.5 -91q151 0 309 62v858q-130 10 -244 10q-79 0 -132.5 -10t-99 -37t-72 -75.5t-40.5 -124.5 t-14 -185v-82z" />
<glyph unicode="r" horiz-adv-x="739" d="M164 0v1112h131v-90q166 119 418 119v-121q-103 0 -217.5 -25t-200.5 -77v-918h-131z" />
<glyph unicode="s" horiz-adv-x="966" d="M102 870q0 138 98.5 204.5t299.5 66.5q94 0 186 -12.5t139 -26.5v-103q-186 25 -319 25q-143 0 -205.5 -33t-62.5 -121q0 -76 48 -120.5t181 -98.5l80 -33q191 -80 260.5 -150.5t69.5 -193.5q0 -63 -20 -114.5t-64 -95t-125.5 -67.5t-194.5 -24q-100 0 -202 13.5 t-154 27.5v105q10 -1 63.5 -8t90.5 -11t94.5 -8t103.5 -4q149 0 211.5 47t62.5 137q0 83 -48.5 128.5t-200.5 107.5l-80 31q-165 67 -238.5 141.5t-73.5 189.5z" />
<glyph unicode="t" horiz-adv-x="798" d="M47 1010v102h242v299h133v-299h319v-113h-319v-743q0 -108 24 -141t109 -33q104 0 186 10v-94q-113 -25 -200 -25q-141 0 -196.5 61.5t-55.5 215.5v749z" />
<glyph unicode="u" horiz-adv-x="1187" d="M158 408v704h131v-704q0 -180 49.5 -250t181.5 -70q145 0 371 109v915h133v-1112h-133v90q-226 -117 -395 -117q-100 0 -167.5 30t-104 89.5t-51.5 135t-15 180.5z" />
<glyph unicode="v" horiz-adv-x="1034" d="M41 1112h145l250 -752q28 -85 80 -268h4q10 32 36 123t44 145l248 752h145l-383 -1112h-186z" />
<glyph unicode="w" horiz-adv-x="1658" d="M61 1112h138l176 -756q33 -155 45 -252h8q10 32 35.5 120t40.5 132l223 672h207l223 -672q15 -44 40.5 -132t35.5 -120h8q12 97 45 252l174 756h137l-264 -1112h-192l-248 733q-36 106 -59 197h-7q-56 -189 -59 -197l-248 -733h-192z" />
<glyph unicode="x" horiz-adv-x="1050" d="M41 0l399 569l-379 543h158l322 -455l307 455h153l-391 -559l391 -553h-161l-324 457l-317 -457h-158z" />
<glyph unicode="y" horiz-adv-x="1064" d="M20 -328q107 -8 191 -8q51 0 84 11t61.5 44.5t49 77.5t51.5 129l26 76l-430 1110h148l266 -713q2 -5 84 -249q34 124 76 251l243 711h144l-424 -1200q-29 -81 -51 -132t-53.5 -99.5t-67.5 -74t-86.5 -40.5t-116.5 -15q-83 0 -195 15v106z" />
<glyph unicode="z" horiz-adv-x="980" d="M86 0v147l653 852h-628v113h774v-137l-662 -864h664v-111h-801z" />
<glyph unicode="{" horiz-adv-x="821" d="M129 498v98q87 60 115 113.5t28 160.5v373q0 72 12 119t46 85.5t100 56.5t168 18h111v-115h-111q-53 0 -87.5 -6t-56 -17t-32 -32.5t-13.5 -45t-3 -63.5v-373q0 -119 -34.5 -192t-119.5 -131q85 -60 119.5 -133.5t34.5 -190.5v-373q0 -51 5 -78t25 -49t58 -30t104 -8h113 v-113h-113q-102 0 -168 18.5t-100 57t-46 85.5t-12 117v373q0 107 -28 161t-115 114z" />
<glyph unicode="|" horiz-adv-x="577" d="M221 -428v1950h133v-1950h-133z" />
<glyph unicode="}" horiz-adv-x="821" d="M111 -315h112q66 0 104.5 8t58 30t25 49t5.5 78v373q0 118 34.5 191t118.5 133q-84 58 -118.5 131t-34.5 192v373q0 50 -5.5 77t-25 49t-58 30t-104.5 8h-110v115h110q102 0 168 -18t100 -56.5t46 -85.5t12 -119v-373q0 -107 28 -160.5t115 -113.5v-98q-87 -60 -115 -114 t-28 -161v-373q0 -70 -12 -117t-46 -85.5t-100 -57t-168 -18.5h-112v113z" />
<glyph unicode="~" d="M252 719v86q0 140 49 213.5t168 73.5q58 0 103 -24.5t108 -80.5l115 -98q89 -82 163 -82q65 0 84 42t19 136v88h110v-88q0 -68 -9 -117t-31 -88.5t-63.5 -59.5t-102.5 -20q-118 0 -232 99l-119 104q-48 46 -77.5 64t-69.5 18q-63 0 -84 -42.5t-21 -137.5v-86h-110z" />
<glyph unicode="&#xa1;" horiz-adv-x="473" d="M164 -449l14 1168h119l12 -1168h-145zM168 850v260h137v-260h-137z" />
<glyph unicode="&#xa2;" horiz-adv-x="978" d="M119 475v164q0 458 377 498v227h122v-225q116 -5 250 -33v-102q-190 20 -286 20q-81 0 -139.5 -19t-102 -62.5t-65 -119t-21.5 -184.5v-164q0 -111 21 -187t64.5 -119.5t101.5 -62t141 -18.5q89 0 286 23v-103q-132 -28 -250 -35v-223h-122v227q-192 19 -284.5 142.5 t-92.5 355.5z" />
<glyph unicode="&#xa3;" horiz-adv-x="1267" d="M137 737v115h168v182q0 108 11.5 184.5t41 140.5t81 102t131 58.5t190.5 20.5q185 0 370 -35v-108q-187 22 -362 22q-71 0 -121.5 -8t-87.5 -28t-59.5 -47t-35.5 -73t-17.5 -99t-4.5 -130v-182h533v-115h-533v-340q0 -163 -90 -280h778v-117h-929v106q104 112 104 291 v340h-168z" />
<glyph unicode="&#xa4;" horiz-adv-x="1312" d="M160 375l155 155q-82 108 -82 246q0 139 82 246l-155 156l94 92l156 -154q105 80 245 80t248 -80l154 154l94 -92l-156 -154q82 -116 82 -248q0 -136 -80 -248l154 -153l-94 -94l-156 155q-111 -82 -246 -82q-141 0 -245 82l-158 -153zM348 776q0 -128 90.5 -220.5 t216.5 -92.5q125 0 217 91.5t93 221.5q0 127 -90.5 220.5t-219.5 93.5q-126 0 -216.5 -91.5t-90.5 -222.5z" />
<glyph unicode="&#xa5;" horiz-adv-x="1331" d="M102 1522h150l307 -568q79 -150 103 -209h8q15 36 106 209l305 568h142l-291 -537h262v-108h-322l-129 -238h451v-109h-463v-530h-137v530h-465v109h451l-127 238h-324v108h262z" />
<glyph unicode="&#xa6;" horiz-adv-x="577" d="M221 375h133v-803h-133v803zM221 719v803h133v-803h-133z" />
<glyph unicode="&#xa7;" horiz-adv-x="1288" d="M170 1198q0 181 122 264.5t363 83.5q209 0 410 -37v-114q-260 26 -406 26q-183 0 -264.5 -51t-81.5 -172q0 -101 55.5 -166t202.5 -137l199 -98q193 -94 269.5 -185.5t76.5 -228.5q0 -121 -59 -219q59 -98 59 -219q0 -186 -125 -294t-366 -108q-222 0 -418 37v115 q243 -27 411 -27q180 0 266.5 69t86.5 208q0 78 -23 127t-83 95.5t-187 111.5l-207 104q-151 78 -225 168.5t-74 220.5q0 128 61 217q-63 92 -63 209zM299 788q0 -50 9.5 -87.5t24 -63.5t48 -52t65.5 -44t93 -49l200 -101q140 -68 222 -135q16 39 16 102q0 83 -22.5 133.5 t-76 90.5t-167.5 96l-199 98q-115 58 -188 123q-25 -52 -25 -111z" />
<glyph unicode="&#xa8;" horiz-adv-x="903" d="M156 1315v244h123v-244h-123zM627 1315v244h121v-244h-121z" />
<glyph unicode="&#xa9;" horiz-adv-x="1714" d="M135 772q0 230 94 400.5t255.5 257t369.5 86.5q155 0 286.5 -50.5t227 -144t149.5 -235t54 -314.5q0 -231 -93.5 -401t-254.5 -256t-369 -86t-369.5 86t-255.5 256t-94 401zM248 772q0 -297 168 -470t438 -173q178 0 315 76t215 222.5t78 344.5q0 296 -168.5 468.5 t-439.5 172.5q-270 0 -438 -172.5t-168 -468.5zM498 715v112q0 190 93.5 286.5t274.5 96.5q145 0 224 -18v-98q-133 14 -220 14q-136 0 -192.5 -64.5t-56.5 -216.5v-112q0 -152 56.5 -216.5t192.5 -64.5q106 0 220 15v-99q-63 -18 -224 -18q-180 0 -274 98t-94 285z" />
<glyph unicode="&#xaa;" horiz-adv-x="808" d="M102 1071v21q0 52 16.5 89t43 59t71 34t89.5 16t110 4h113v45q0 93 -33.5 122.5t-146.5 29.5q-82 0 -211 -12v73q116 25 227 25t171 -25.5t81.5 -74.5t21.5 -138v-444h-106v49q-108 -65 -234 -65q-100 0 -156.5 48t-56.5 144zM211 1067q0 -59 33.5 -80.5t99.5 -21.5 q56 0 112.5 18t88.5 39v197h-113q-127 0 -174 -23.5t-47 -101.5v-27z" />
<glyph unicode="&#xab;" horiz-adv-x="1255" d="M115 584l325 422h160l-319 -422l319 -424h-160zM651 584l330 422h160l-324 -422l324 -424h-160z" />
<glyph unicode="&#xac;" d="M254 977v113h915v-574h-114v461h-801z" />
<glyph unicode="&#xad;" horiz-adv-x="808" d="M154 537v114h501v-114h-501z" />
<glyph unicode="&#xae;" horiz-adv-x="1380" d="M139 979q0 260 150 418.5t397 158.5t398 -158.5t151 -418.5q0 -259 -151 -418.5t-398 -159.5t-397 159.5t-150 418.5zM231 979q0 -226 122.5 -359t332.5 -133t332.5 133t122.5 359q0 225 -122.5 357t-332.5 132t-332.5 -132t-122.5 -357zM477 674v649q144 4 168 4 q131 0 199.5 -43t68.5 -149v-7q0 -146 -137 -184l178 -270h-114l-164 254h-105v-254h-94zM571 1004h84q81 0 120.5 27.5t39.5 96.5v7q0 67 -40 89.5t-130 22.5h-74v-243z" />
<glyph unicode="&#xaf;" horiz-adv-x="1177" d="M-10 1688v90h1198v-90h-1198z" />
<glyph unicode="&#xb0;" horiz-adv-x="915" d="M104 1190q0 149 103.5 251.5t251.5 102.5q149 0 252.5 -102.5t103.5 -251.5t-103 -250.5t-253 -101.5q-148 0 -251.5 101.5t-103.5 250.5zM217 1190q0 -104 70.5 -173t171.5 -69t171 69t70 173q0 106 -70 175t-171 69t-171.5 -69t-70.5 -175z" />
<glyph unicode="&#xb1;" d="M199 786v113h458v457h113v-457h455v-113h-455v-456h-113v456h-458zM207 0v113h1007v-113h-1007z" />
<glyph unicode="&#xb2;" horiz-adv-x="862" d="M119 686v90q0 107 28 174.5t87.5 115.5t179.5 108q69 33 109 57.5t61.5 49.5t27.5 47t6 56q0 71 -50.5 99t-166.5 28q-97 0 -268 -18v84q122 27 281 27q167 0 247 -51t80 -167q0 -92 -53.5 -155t-200.5 -135q-110 -54 -159 -92t-67.5 -83t-18.5 -126v-11h487v-98h-610z " />
<glyph unicode="&#xb3;" horiz-adv-x="854" d="M123 692v86q196 -16 258 -16q124 0 176.5 37.5t52.5 136.5v16q0 36 -5.5 60t-22.5 47.5t-52.5 35t-91.5 11.5h-276v92h276q45 0 77 9t50 23t28.5 36t13.5 42.5t3 47.5v10q0 80 -49.5 111.5t-179.5 31.5q-54 0 -258 -16v84q36 8 117 17.5t151 9.5q177 0 259.5 -52.5 t82.5 -179.5v-12q0 -159 -129 -209q129 -44 129 -201v-16q0 -140 -83 -203t-259 -63q-144 0 -268 24z" />
<glyph unicode="&#xb4;" horiz-adv-x="907" d="M322 1262l274 315h164l-303 -315h-135z" />
<glyph unicode="&#xb5;" horiz-adv-x="1284" d="M207 -428v1540h133v-704q0 -180 49.5 -250t181.5 -70q145 0 371 109v915h133v-1112h-133v90q-226 -117 -397 -117q-145 0 -203 78v-479h-135z" />
<glyph unicode="&#xb6;" horiz-adv-x="1458" d="M135 1020v20q0 86 16.5 155t46 119.5t75.5 87.5t99 60t122.5 37t140 19.5t158.5 5.5h507v-1936h-124v1819h-154v-1819h-125v951h-117q-119 0 -211.5 12.5t-176 45t-138.5 86t-87 138.5t-32 199z" />
<glyph unicode="&#xb7;" horiz-adv-x="534" d="M201 614v283h137v-283h-137z" />
<glyph unicode="&#xb8;" horiz-adv-x="890" d="M156 -428l247 289h168l-274 -289h-141z" />
<glyph unicode="&#xb9;" horiz-adv-x="792" d="M123 1407v100l250 86h92v-813l219 -4v-90h-559v90l217 4v697z" />
<glyph unicode="&#xba;" horiz-adv-x="815" d="M102 1196v64q0 153 77 235t229 82t228.5 -82t76.5 -235v-64q0 -154 -77 -238t-228 -84t-228.5 84t-77.5 238zM213 1196q0 -115 46.5 -171t148.5 -56q101 0 147.5 55.5t46.5 171.5v64q0 115 -46 170t-148 55q-101 0 -148 -55t-47 -170v-64z" />
<glyph unicode="&#xbb;" horiz-adv-x="1255" d="M115 160l323 424l-323 422h159l330 -422l-330 -424h-159zM655 160l320 424l-320 422h160l326 -422l-326 -424h-160z" />
<glyph unicode="&#xbc;" horiz-adv-x="1818" d="M125 1350v100l250 86h92v-813l219 -4v-90h-559v90l217 4v696zM420 0l969 1522h137l-971 -1522h-135zM977 240v100l463 563h121v-571h147v-92h-147v-240h-123v240h-461zM1094 332h348v430z" />
<glyph unicode="&#xbd;" horiz-adv-x="1986" d="M125 1350v100l250 86h92v-813l219 -4v-90h-559v90l217 4v696zM420 0l969 1522h137l-971 -1522h-135zM1266 0v90q0 156 59.5 233t235.5 164q131 63 167.5 103.5t36.5 107.5q0 71 -50.5 99t-166.5 28q-97 0 -268 -18v84q122 27 281 27q167 0 247 -51t80 -167 q0 -92 -53.5 -155t-200.5 -135q-110 -54 -159 -92t-67.5 -83t-18.5 -126v-11h487v-98h-610z" />
<glyph unicode="&#xbe;" horiz-adv-x="1878" d="M119 635v86q196 -16 256 -16q125 0 178 37.5t53 136.5v16q0 36 -6 60.5t-23 47.5t-53 34.5t-92 11.5h-276v92h278q55 0 91.5 12.5t53 37t22 48.5t5.5 59v11q0 80 -49.5 111.5t-179.5 31.5q-54 0 -258 -16v84q34 8 115 17t151 9q178 0 261 -52t83 -179v-12 q0 -159 -129 -209q129 -45 129 -201v-16q0 -140 -83 -203.5t-261 -63.5q-137 0 -266 25zM426 0l971 1522h135l-969 -1522h-137zM1026 240v100l463 563h121v-571h147v-92h-147v-240h-123v240h-461zM1143 332h348v430z" />
<glyph unicode="&#xbf;" horiz-adv-x="927" d="M133 -150q0 107 44.5 193t166.5 205q73 72 113 119t61.5 92.5t27 81.5t5.5 96v80h131v-80q0 -92 -13 -150t-60 -130.5t-142 -163.5q-119 -113 -158 -182.5t-39 -160.5v-12q0 -113 71 -154.5t216 -41.5q99 0 311 24v-102q-164 -41 -321 -41q-201 0 -307.5 72.5 t-106.5 242.5v12zM547 846v266h135v-266h-135z" />
<glyph unicode="&#xc0;" horiz-adv-x="1316" d="M47 0l516 1522h191l514 -1522h-146l-178 539h-577l-181 -539h-139zM379 1931h164l274 -315h-137zM408 664h493l-172 510q-38 111 -65 235h-15q-30 -125 -65 -235z" />
<glyph unicode="&#xc1;" horiz-adv-x="1316" d="M47 0l516 1522h191l514 -1522h-146l-178 539h-577l-181 -539h-139zM408 664h493l-172 510q-38 111 -65 235h-15q-30 -125 -65 -235zM535 1616l274 315h164l-301 -315h-137z" />
<glyph unicode="&#xc2;" horiz-adv-x="1316" d="M47 0l516 1522h191l514 -1522h-146l-178 539h-577l-181 -539h-139zM287 1616l282 315h172l283 -315h-137l-232 237l-231 -237h-137zM408 664h493l-172 510q-38 111 -65 235h-15q-30 -125 -65 -235z" />
<glyph unicode="&#xc3;" horiz-adv-x="1316" d="M47 0l516 1522h191l514 -1522h-146l-178 539h-577l-181 -539h-139zM268 1618v70q0 122 43.5 186.5t143.5 64.5q55 0 94.5 -18.5t93.5 -65.5l86 -79q40 -39 68.5 -55.5t62.5 -16.5q53 0 70.5 39t17.5 117v69h99v-69q0 -125 -42 -189.5t-143 -64.5q-53 0 -97.5 21.5 t-98.5 68.5l-84 80q-39 38 -65.5 52.5t-61.5 14.5q-53 0 -70.5 -38.5t-17.5 -116.5v-70h-99zM408 664h493l-172 510q-38 111 -65 235h-15q-30 -125 -65 -235z" />
<glyph unicode="&#xc4;" horiz-adv-x="1316" d="M47 0l516 1522h191l514 -1522h-146l-178 539h-577l-181 -539h-139zM360 1657v244h123v-244h-123zM408 664h493l-172 510q-38 111 -65 235h-15q-30 -125 -65 -235zM829 1657v244h123v-244h-123z" />
<glyph unicode="&#xc5;" horiz-adv-x="1316" d="M47 0l516 1522h191l514 -1522h-146l-178 539h-577l-181 -539h-139zM408 664h493l-172 510q-38 111 -65 235h-15q-30 -125 -65 -235zM422 1800q0 110 65.5 165.5t171.5 55.5t170 -55t64 -166t-64 -166t-170 -55t-171.5 55.5t-65.5 165.5zM518 1800q0 -72 39 -104.5 t102 -32.5q62 0 102 33t40 104q0 72 -40 104.5t-102 32.5q-141 0 -141 -137z" />
<glyph unicode="&#xc6;" horiz-adv-x="1929" d="M61 0l510 1522h1246v-123h-740v-543h692v-125h-692v-610h740v-121h-875v539h-563l-178 -539h-140zM420 662h522v739h-276q-46 -149 -70 -221z" />
<glyph unicode="&#xc7;" horiz-adv-x="1126" d="M113 674v174q0 158 28 278t78 199t125.5 129t164.5 71t202 21q159 0 354 -33v-112q-231 22 -354 22q-240 0 -350.5 -131.5t-110.5 -443.5v-174q0 -312 110.5 -445t350.5 -133q112 0 354 23v-115q-198 -31 -354 -31q-113 0 -202 21t-164.5 71t-125.5 130t-78 200.5 t-28 278.5zM354 -428l248 289h168l-276 -289h-140z" />
<glyph unicode="&#xc8;" horiz-adv-x="1163" d="M174 0v1522h877v-123h-740v-543h690v-125h-690v-610h740v-121h-877zM283 1931h161l277 -315h-137z" />
<glyph unicode="&#xc9;" horiz-adv-x="1163" d="M174 0v1522h877v-123h-740v-543h690v-125h-690v-610h740v-121h-877zM516 1616l275 315h163l-303 -315h-135z" />
<glyph unicode="&#xca;" horiz-adv-x="1163" d="M174 0v1522h877v-123h-740v-543h690v-125h-690v-610h740v-121h-877zM248 1616l282 315h172l283 -315h-137l-232 237l-231 -237h-137z" />
<glyph unicode="&#xcb;" horiz-adv-x="1163" d="M174 0v1522h877v-123h-740v-543h690v-125h-690v-610h740v-121h-877zM319 1655v243h123v-243h-123zM791 1655v243h120v-243h-120z" />
<glyph unicode="&#xcc;" horiz-adv-x="491" d="M-29 1931h164l277 -315h-138zM178 0v1522h137v-1522h-137z" />
<glyph unicode="&#xcd;" horiz-adv-x="491" d="M117 1614l274 315h164l-301 -315h-137zM178 0v1522h137v-1522h-137z" />
<glyph unicode="&#xce;" horiz-adv-x="491" d="M-123 1616l283 315h172l282 -315h-137l-231 237l-232 -237h-137zM178 0v1522h137v-1522h-137z" />
<glyph unicode="&#xcf;" horiz-adv-x="491" d="M-49 1657v244h123v-244h-123zM178 0v1522h137v-1522h-137zM422 1657v244h121v-244h-121z" />
<glyph unicode="&#xd0;" horiz-adv-x="1349" d="M57 731v121h117v670q212 6 410 6q337 0 495 -170t158 -506v-180q0 -339 -155.5 -509.5t-497.5 -170.5q-156 0 -410 8v731h-117zM311 121q156 -8 262 -8q268 0 397.5 129t129.5 430v180q0 153 -33 260t-101 171.5t-164 93t-229 28.5q-102 0 -262 -4v-549h340v-121h-340 v-610z" />
<glyph unicode="&#xd1;" horiz-adv-x="1417" d="M174 0v1522h195l643 -1170q25 -46 104 -209h2q-6 144 -6 267v1112h131v-1524h-194l-641 1182q-76 144 -109 213h-2q6 -126 6 -263v-1130h-129zM319 1614v69q0 123 44.5 188.5t144.5 65.5q55 0 95 -19t93 -67l86 -79q41 -38 69 -54t62 -16q53 0 69.5 38t16.5 118v67h99 v-67q0 -125 -41 -189.5t-142 -64.5q-54 0 -98.5 21t-97.5 69l-84 78q-40 39 -66.5 54t-60.5 15q-53 0 -70.5 -39t-17.5 -119v-69h-101z" />
<glyph unicode="&#xd2;" horiz-adv-x="1374" d="M113 680v160q0 355 148 530.5t427 175.5q277 0 425.5 -176t148.5 -530v-160q0 -354 -148.5 -530.5t-425.5 -176.5q-279 0 -427 176t-148 531zM250 680q0 -584 438 -584q99 0 176 30t136.5 96t91.5 181.5t32 276.5v160q0 161 -31.5 276t-91.5 181t-137 96t-176 30 q-79 0 -144 -18t-120.5 -60.5t-93.5 -109t-59 -166.5t-21 -229v-160zM387 1931h162l276 -315h-137z" />
<glyph unicode="&#xd3;" horiz-adv-x="1374" d="M113 680v160q0 355 148 530.5t427 175.5q277 0 425.5 -176t148.5 -530v-160q0 -354 -148.5 -530.5t-425.5 -176.5q-279 0 -427 176t-148 531zM250 680q0 -584 438 -584q99 0 176 30t136.5 96t91.5 181.5t32 276.5v160q0 161 -31.5 276t-91.5 181t-137 96t-176 30 q-79 0 -144 -18t-120.5 -60.5t-93.5 -109t-59 -166.5t-21 -229v-160zM555 1616l276 315h162l-301 -315h-137z" />
<glyph unicode="&#xd4;" horiz-adv-x="1374" d="M113 680v160q0 355 148 530.5t427 175.5q277 0 425.5 -176t148.5 -530v-160q0 -354 -148.5 -530.5t-425.5 -176.5q-279 0 -427 176t-148 531zM250 680q0 -584 438 -584q99 0 176 30t136.5 96t91.5 181.5t32 276.5v160q0 161 -31.5 276t-91.5 181t-137 96t-176 30 q-79 0 -144 -18t-120.5 -60.5t-93.5 -109t-59 -166.5t-21 -229v-160zM317 1614l283 315h172l283 -315h-137l-232 239l-231 -239h-138z" />
<glyph unicode="&#xd5;" horiz-adv-x="1374" d="M113 680v160q0 355 148 530.5t427 175.5q277 0 425.5 -176t148.5 -530v-160q0 -354 -148.5 -530.5t-425.5 -176.5q-279 0 -427 176t-148 531zM250 680q0 -584 438 -584q99 0 176 30t136.5 96t91.5 181.5t32 276.5v160q0 161 -31.5 276t-91.5 181t-137 96t-176 30 q-79 0 -144 -18t-120.5 -60.5t-93.5 -109t-59 -166.5t-21 -229v-160zM297 1616v70q0 123 44 188t144 65q55 0 95.5 -19t93.5 -67l86 -79q41 -38 69 -54t62 -16q53 0 69.5 38t16.5 118v67h98v-67q0 -125 -41 -189.5t-141 -64.5q-54 0 -99 21.5t-98 68.5l-84 78 q-40 39 -66.5 54t-60.5 15q-53 0 -70.5 -38.5t-17.5 -118.5v-70h-100z" />
<glyph unicode="&#xd6;" horiz-adv-x="1374" d="M113 680v160q0 355 148 530.5t427 175.5q277 0 425.5 -176t148.5 -530v-160q0 -354 -148.5 -530.5t-425.5 -176.5q-279 0 -427 176t-148 531zM250 680q0 -584 438 -584q99 0 176 30t136.5 96t91.5 181.5t32 276.5v160q0 161 -31.5 276t-91.5 181t-137 96t-176 30 q-79 0 -144 -18t-120.5 -60.5t-93.5 -109t-59 -166.5t-21 -229v-160zM391 1659v244h123v-244h-123zM862 1659v244h121v-244h-121z" />
<glyph unicode="&#xd7;" d="M295 1139l78 78l340 -338l336 338l79 -80l-337 -338l335 -334l-79 -78l-334 334l-338 -338l-78 78l338 340z" />
<glyph unicode="&#xd8;" horiz-adv-x="1374" d="M82 0l141 201q-110 173 -110 479v160q0 355 148 530.5t427 175.5q248 0 389 -141l82 117h141l-145 -207q107 -176 107 -475v-160q0 -354 -148.5 -530.5t-425.5 -176.5q-245 0 -387 136l-76 -109h-143zM250 680q0 -227 65 -354l684 970q-110 127 -311 127q-79 0 -144 -18 t-120.5 -60.5t-93.5 -109t-59 -166.5t-21 -229v-160zM379 217q107 -121 309 -121q99 0 176 30t136.5 96t91.5 181.5t32 276.5v160q0 217 -61 348z" />
<glyph unicode="&#xd9;" horiz-adv-x="1398" d="M164 653v869h137v-854q0 -308 87.5 -439t311.5 -131q222 0 311 132.5t89 437.5v854h135v-869q0 -341 -130.5 -509.5t-404.5 -168.5q-277 0 -406.5 168t-129.5 510zM377 1931h162l276 -315h-137z" />
<glyph unicode="&#xda;" horiz-adv-x="1398" d="M164 653v869h137v-854q0 -308 87.5 -439t311.5 -131q222 0 311 132.5t89 437.5v854h135v-869q0 -341 -130.5 -509.5t-404.5 -168.5q-277 0 -406.5 168t-129.5 510zM592 1618l274 315h164l-301 -315h-137z" />
<glyph unicode="&#xdb;" horiz-adv-x="1398" d="M164 653v869h137v-854q0 -308 87.5 -439t311.5 -131q222 0 311 132.5t89 437.5v854h135v-869q0 -341 -130.5 -509.5t-404.5 -168.5q-277 0 -406.5 168t-129.5 510zM332 1616l282 315h172l283 -315h-137l-232 237l-231 -237h-137z" />
<glyph unicode="&#xdc;" horiz-adv-x="1398" d="M164 653v869h137v-854q0 -308 87.5 -439t311.5 -131q222 0 311 132.5t89 437.5v854h135v-869q0 -341 -130.5 -509.5t-404.5 -168.5q-277 0 -406.5 168t-129.5 510zM401 1657v244h123v-244h-123zM870 1657v244h123v-244h-123z" />
<glyph unicode="&#xdd;" horiz-adv-x="1230" d="M55 1522h150l307 -568q74 -141 102 -209h9q15 36 106 209l305 568h142l-492 -908v-614h-137v614zM530 1616l275 315h164l-301 -315h-138z" />
<glyph unicode="&#xde;" horiz-adv-x="1208" d="M170 0v1524h137v-264q148 4 230 4q142 0 244 -20t182.5 -68.5t121 -135.5t41.5 -215v-26q0 -103 -27.5 -180t-77 -127.5t-125 -82t-164 -44.5t-200.5 -13q-145 0 -225 2v-354h-137zM307 475q82 -2 225 -2q241 0 349 71.5t108 254.5v26q-1 94 -27.5 155.5t-85 97 t-139 49.5t-200.5 14q-41 0 -230 -6v-660z" />
<glyph unicode="&#xdf;" horiz-adv-x="1251" d="M180 0v1047q0 281 109.5 423t361.5 142q234 0 344.5 -110.5t110.5 -299.5v-18q0 -133 -60.5 -223t-175.5 -127q124 -33 196.5 -126.5t72.5 -232.5v-43q0 -214 -119.5 -332t-364.5 -118q-59 0 -118 6v106q59 -4 114 -4q182 0 269.5 83t87.5 261v41q0 299 -377 299h-94v107 h94q185 0 264.5 79.5t79.5 223.5v18q0 143 -72.5 218t-251.5 75q-186 0 -261 -100.5t-75 -347.5v-1047h-135z" />
<glyph unicode="&#xe0;" horiz-adv-x="1087" d="M106 293v31q0 84 22.5 144t62 98t104.5 60t140 30t179 8h189v94q0 86 -10.5 134.5t-44.5 80.5t-89 42.5t-151 10.5q-130 0 -326 -22v98q205 39 336 39q132 0 215 -22t128 -72.5t61 -117t16 -171.5v-758h-129v80q-178 -107 -371 -107q-165 0 -248.5 78t-83.5 242z M233 1577h164l275 -315h-137zM240 285q0 -111 57.5 -159t167.5 -48q94 0 187 31.5t151 68.5v381h-189q-86 0 -142.5 -5.5t-104 -20t-73.5 -41t-40 -67.5t-14 -101v-39z" />
<glyph unicode="&#xe1;" horiz-adv-x="1087" d="M106 293v31q0 84 22.5 144t62 98t104.5 60t140 30t179 8h189v94q0 86 -10.5 134.5t-44.5 80.5t-89 42.5t-151 10.5q-130 0 -326 -22v98q205 39 336 39q132 0 215 -22t128 -72.5t61 -117t16 -171.5v-758h-129v80q-178 -107 -371 -107q-165 0 -248.5 78t-83.5 242zM240 285 q0 -111 57.5 -159t167.5 -48q94 0 187 31.5t151 68.5v381h-189q-86 0 -142.5 -5.5t-104 -20t-73.5 -41t-40 -67.5t-14 -101v-39zM446 1262l275 315h164l-303 -315h-136z" />
<glyph unicode="&#xe2;" horiz-adv-x="1087" d="M106 293v31q0 84 22.5 144t62 98t104.5 60t140 30t179 8h189v94q0 86 -10.5 134.5t-44.5 80.5t-89 42.5t-151 10.5q-130 0 -326 -22v98q205 39 336 39q132 0 215 -22t128 -72.5t61 -117t16 -171.5v-758h-129v80q-178 -107 -371 -107q-165 0 -248.5 78t-83.5 242z M178 1262l283 315h172l282 -315h-137l-233 237l-230 -237h-137zM240 285q0 -111 57.5 -159t167.5 -48q94 0 187 31.5t151 68.5v381h-189q-86 0 -142.5 -5.5t-104 -20t-73.5 -41t-40 -67.5t-14 -101v-39z" />
<glyph unicode="&#xe3;" horiz-adv-x="1087" d="M106 293v31q0 84 22.5 144t62 98t104.5 60t140 30t179 8h189v94q0 86 -10.5 134.5t-44.5 80.5t-89 42.5t-151 10.5q-130 0 -326 -22v98q205 39 336 39q132 0 215 -22t128 -72.5t61 -117t16 -171.5v-758h-129v80q-178 -107 -371 -107q-165 0 -248.5 78t-83.5 242z M158 1268v69q0 124 43 189t143 65q54 0 93.5 -19.5t94.5 -66.5l86 -80q40 -38 68.5 -54.5t63.5 -16.5q53 0 70.5 38.5t17.5 116.5v70h98v-70q0 -123 -41.5 -187.5t-142.5 -64.5q-54 0 -99 21.5t-98 69.5l-84 77q-39 39 -65.5 54.5t-61.5 15.5q-36 0 -56.5 -21.5t-26 -53 t-5.5 -83.5v-69h-98zM240 285q0 -111 57.5 -159t167.5 -48q94 0 187 31.5t151 68.5v381h-189q-86 0 -142.5 -5.5t-104 -20t-73.5 -41t-40 -67.5t-14 -101v-39z" />
<glyph unicode="&#xe4;" horiz-adv-x="1087" d="M106 293v31q0 84 22.5 144t62 98t104.5 60t140 30t179 8h189v94q0 86 -10.5 134.5t-44.5 80.5t-89 42.5t-151 10.5q-130 0 -326 -22v98q205 39 336 39q132 0 215 -22t128 -72.5t61 -117t16 -171.5v-758h-129v80q-178 -107 -371 -107q-165 0 -248.5 78t-83.5 242zM240 285 q0 -111 57.5 -159t167.5 -48q94 0 187 31.5t151 68.5v381h-189q-86 0 -142.5 -5.5t-104 -20t-73.5 -41t-40 -67.5t-14 -101v-39zM250 1315v244h125v-244h-125zM721 1315v244h123v-244h-123z" />
<glyph unicode="&#xe5;" horiz-adv-x="1087" d="M106 293v31q0 84 22.5 144t62 98t104.5 60t140 30t179 8h189v94q0 86 -10.5 134.5t-44.5 80.5t-89 42.5t-151 10.5q-130 0 -326 -22v98q205 39 336 39q132 0 215 -22t128 -72.5t61 -117t16 -171.5v-758h-129v80q-178 -107 -371 -107q-165 0 -248.5 78t-83.5 242zM240 285 q0 -111 57.5 -159t167.5 -48q94 0 187 31.5t151 68.5v381h-189q-86 0 -142.5 -5.5t-104 -20t-73.5 -41t-40 -67.5t-14 -101v-39zM326 1450q0 109 65 164t172 55q104 0 168 -55t64 -164q0 -110 -64 -165.5t-168 -55.5q-107 0 -172 55t-65 166zM420 1450q0 -137 143 -137 q62 0 100.5 32t38.5 105q0 135 -139 135q-143 0 -143 -135z" />
<glyph unicode="&#xe6;" horiz-adv-x="1835" d="M104 287v43q0 82 22.5 141t62 96t104.5 59t140 30t179 8h191v94q0 85 -10.5 133.5t-44 80.5t-89 43t-151.5 11q-143 0 -330 -22v98q198 39 338 39q126 0 204.5 -21t116.5 -56.5t60 -94.5q108 170 371 170q237 0 350 -140t113 -395v-94h-793v-113q0 -78 17 -133 t58.5 -96.5t115 -61.5t182.5 -20q165 0 383 37v-109q-187 -41 -385 -41q-172 0 -275.5 34.5t-156.5 113.5q-199 -148 -445 -148q-157 0 -242.5 78t-85.5 236zM240 276q0 -198 217 -198q97 0 191.5 34.5t154.5 77.5v369h-191q-86 0 -142.5 -5t-103.5 -19t-73 -40t-39.5 -66 t-13.5 -99v-54zM940 623h653v30q0 371 -325 371q-78 0 -137.5 -21.5t-95 -56t-57.5 -82.5t-30 -94.5t-8 -99.5v-47z" />
<glyph unicode="&#xe7;" horiz-adv-x="954" d="M113 496v122q0 268 109 395.5t335 127.5q135 0 305 -35v-102q-193 20 -287 20q-83 0 -140.5 -18t-101.5 -62.5t-64.5 -125t-20.5 -200.5v-122q0 -123 20.5 -203.5t64 -125t100.5 -62t142 -17.5q87 0 287 23v-103q-162 -35 -305 -35q-229 0 -336.5 126t-107.5 397z M242 -428l247 289h168l-276 -289h-139z" />
<glyph unicode="&#xe8;" horiz-adv-x="1144" d="M113 514v78q0 549 460 549q238 0 350.5 -141.5t112.5 -421.5v-68h-790v-25q0 -101 16 -170t56 -122t114 -78t186 -25q183 0 381 31v-107q-182 -41 -385 -41q-142 0 -238 31.5t-154.5 100.5t-83.5 167.5t-25 241.5zM248 623h649v18q0 64 -7.5 116.5t-29.5 103.5t-57 86 t-93.5 56t-136.5 21t-137 -22t-94 -57t-57 -86.5t-29.5 -103t-7.5 -114.5v-18zM281 1577h163l277 -315h-137z" />
<glyph unicode="&#xe9;" horiz-adv-x="1144" d="M113 514v78q0 549 460 549q238 0 350.5 -141.5t112.5 -421.5v-68h-790v-25q0 -101 16 -170t56 -122t114 -78t186 -25q183 0 381 31v-107q-182 -41 -385 -41q-142 0 -238 31.5t-154.5 100.5t-83.5 167.5t-25 241.5zM248 623h649v18q0 64 -7.5 116.5t-29.5 103.5t-57 86 t-93.5 56t-136.5 21t-137 -22t-94 -57t-57 -86.5t-29.5 -103t-7.5 -114.5v-18zM492 1262l274 315h164l-303 -315h-135z" />
<glyph unicode="&#xea;" horiz-adv-x="1144" d="M113 514v78q0 549 460 549q238 0 350.5 -141.5t112.5 -421.5v-68h-790v-25q0 -101 16 -170t56 -122t114 -78t186 -25q183 0 381 31v-107q-182 -41 -385 -41q-142 0 -238 31.5t-154.5 100.5t-83.5 167.5t-25 241.5zM209 1262l283 315h172l282 -315h-137l-231 237 l-232 -237h-137zM248 623h649v18q0 64 -7.5 116.5t-29.5 103.5t-57 86t-93.5 56t-136.5 21t-137 -22t-94 -57t-57 -86.5t-29.5 -103t-7.5 -114.5v-18z" />
<glyph unicode="&#xeb;" horiz-adv-x="1144" d="M113 514v78q0 549 460 549q238 0 350.5 -141.5t112.5 -421.5v-68h-790v-25q0 -101 16 -170t56 -122t114 -78t186 -25q183 0 381 31v-107q-182 -41 -385 -41q-142 0 -238 31.5t-154.5 100.5t-83.5 167.5t-25 241.5zM248 623h649v18q0 64 -7.5 116.5t-29.5 103.5t-57 86 t-93.5 56t-136.5 21t-137 -22t-94 -57t-57 -86.5t-29.5 -103t-7.5 -114.5v-18zM276 1315v244h123v-244h-123zM748 1315v244h120v-244h-120z" />
<glyph unicode="&#xec;" horiz-adv-x="483" d="M-59 1577h163l277 -315h-137zM174 0v1112h135v-1112h-135z" />
<glyph unicode="&#xed;" horiz-adv-x="483" d="M104 1262l277 315h162l-301 -315h-138zM174 0v1112h135v-1112h-135z" />
<glyph unicode="&#xee;" horiz-adv-x="483" d="M-125 1262l283 315h172l282 -315h-137l-233 237l-230 -237h-137zM174 0v1112h135v-1112h-135z" />
<glyph unicode="&#xef;" horiz-adv-x="483" d="M-53 1315v244h123v-244h-123zM174 0v1112h135v-1112h-135zM418 1315v244h121v-244h-121z" />
<glyph unicode="&#xf0;" horiz-adv-x="1155" d="M115 483v131q0 246 115.5 378t347.5 132q181 0 280 -110q-36 136 -100.5 229t-169.5 150l-281 -185l-53 72l231 160q-118 42 -272 45q-20 3 -53 0v108h61q214 -3 375 -73l170 108l57 -72l-131 -88q348 -222 348 -854v-131q0 -246 -115 -378t-347 -132t-347.5 132 t-115.5 378zM248 483q0 -200 79.5 -296.5t250.5 -96.5q172 0 250.5 96t78.5 297v131q0 202 -78.5 298t-250.5 96q-171 0 -250.5 -96.5t-79.5 -297.5v-131z" />
<glyph unicode="&#xf1;" horiz-adv-x="1187" d="M164 0v1112h133v-90q222 119 383 119q106 0 176 -27t108 -85t53 -134.5t15 -189.5v-705h-135v705q0 181 -48.5 250t-180.5 69q-148 0 -371 -106v-918h-133zM205 1268v69q0 123 43.5 188.5t142.5 65.5q55 0 96 -19.5t93 -66.5l88 -80q41 -39 68 -55t61 -16q53 0 70.5 38.5 t17.5 116.5v70h98v-70q0 -124 -41 -188t-141 -64q-55 0 -100 21.5t-97 69.5l-86 77q-39 39 -65.5 54.5t-61.5 15.5q-51 0 -68.5 -39.5t-17.5 -118.5v-69h-100z" />
<glyph unicode="&#xf2;" horiz-adv-x="1155" d="M115 498v118q0 525 463 525q462 0 462 -525v-118q0 -525 -462 -525q-463 0 -463 525zM248 498q0 -214 78.5 -311t251.5 -97t251 97t78 311v118q0 214 -78 310t-251 96q-172 0 -251 -96.5t-79 -309.5v-118zM266 1577h164l277 -315h-138z" />
<glyph unicode="&#xf3;" horiz-adv-x="1155" d="M115 498v118q0 525 463 525q462 0 462 -525v-118q0 -525 -462 -525q-463 0 -463 525zM248 498q0 -214 78.5 -311t251.5 -97t251 97t78 311v118q0 214 -78 310t-251 96q-172 0 -251 -96.5t-79 -309.5v-118zM461 1262l276 315h162l-301 -315h-137z" />
<glyph unicode="&#xf4;" horiz-adv-x="1155" d="M115 498v118q0 525 463 525q462 0 462 -525v-118q0 -525 -462 -525q-463 0 -463 525zM209 1262l283 315h172l282 -315h-137l-231 237l-232 -237h-137zM248 498q0 -214 78.5 -311t251.5 -97t251 97t78 311v118q0 214 -78 310t-251 96q-172 0 -251 -96.5t-79 -309.5v-118z " />
<glyph unicode="&#xf5;" horiz-adv-x="1155" d="M115 498v118q0 525 463 525q462 0 462 -525v-118q0 -525 -462 -525q-463 0 -463 525zM188 1268v69q0 254 187 254q55 0 95.5 -19.5t92.5 -66.5l88 -80q41 -39 68 -55t61 -16q53 0 70.5 38.5t17.5 116.5v70h99v-70q0 -124 -41.5 -188t-141.5 -64q-55 0 -99.5 21.5 t-96.5 69.5l-86 77q-39 39 -65.5 54.5t-61.5 15.5q-51 0 -68.5 -39.5t-17.5 -118.5v-69h-101zM248 498q0 -214 78.5 -311t251.5 -97t251 97t78 311v118q0 214 -78 310t-251 96q-172 0 -251 -96.5t-79 -309.5v-118z" />
<glyph unicode="&#xf6;" horiz-adv-x="1155" d="M115 498v118q0 525 463 525q462 0 462 -525v-118q0 -525 -462 -525q-463 0 -463 525zM248 498q0 -214 78.5 -311t251.5 -97t251 97t78 311v118q0 214 -78 310t-251 96q-172 0 -251 -96.5t-79 -309.5v-118zM283 1315v244h123v-244h-123zM754 1315v244h120v-244h-120z" />
<glyph unicode="&#xf7;" d="M215 743v113h993v-113h-993zM643 223v271h137v-271h-137zM643 1085v269h137v-269h-137z" />
<glyph unicode="&#xf8;" horiz-adv-x="1155" d="M61 -51l142 188q-88 128 -88 361v118q0 525 463 525q192 0 311 -99l90 121h141l-157 -207q77 -125 77 -340v-118q0 -525 -462 -525q-182 0 -295 84l-80 -108h-142zM248 498q0 -159 43 -246l520 690q-77 80 -233 80q-173 0 -251.5 -96t-78.5 -310v-118zM358 158 q80 -68 220 -68q172 0 250.5 97t78.5 311v118q0 139 -37 220z" />
<glyph unicode="&#xf9;" horiz-adv-x="1187" d="M158 408v704h131v-704q0 -180 49.5 -250t181.5 -70q145 0 371 109v915h133v-1112h-133v90q-226 -117 -395 -117q-100 0 -167.5 30t-104 89.5t-51.5 135t-15 180.5zM268 1577h164l277 -315h-138z" />
<glyph unicode="&#xfa;" horiz-adv-x="1187" d="M158 408v704h131v-704q0 -180 49.5 -250t181.5 -70q145 0 371 109v915h133v-1112h-133v90q-226 -117 -395 -117q-100 0 -167.5 30t-104 89.5t-51.5 135t-15 180.5zM504 1262l274 315h164l-303 -315h-135z" />
<glyph unicode="&#xfb;" horiz-adv-x="1187" d="M158 408v704h131v-704q0 -180 49.5 -250t181.5 -70q145 0 371 109v915h133v-1112h-133v90q-226 -117 -395 -117q-100 0 -167.5 30t-104 89.5t-51.5 135t-15 180.5zM227 1262l283 315h172l283 -315h-138l-231 237l-231 -237h-138z" />
<glyph unicode="&#xfc;" horiz-adv-x="1187" d="M158 408v704h131v-704q0 -180 49.5 -250t181.5 -70q145 0 371 109v915h133v-1112h-133v90q-226 -117 -395 -117q-100 0 -167.5 30t-104 89.5t-51.5 135t-15 180.5zM299 1315v244h123v-244h-123zM770 1315v244h121v-244h-121z" />
<glyph unicode="&#xfd;" horiz-adv-x="1064" d="M20 -328q107 -8 191 -8q51 0 84 11t61.5 44.5t49 77.5t51.5 129l26 76l-430 1110h148l266 -713q44 -128 80 -249h4q34 124 76 251l243 711h144l-424 -1200q-29 -81 -51 -132t-53.5 -99.5t-67.5 -74t-86.5 -40.5t-116.5 -15q-83 0 -195 15v106zM451 1262l276 315h162 l-301 -315h-137z" />
<glyph unicode="&#xfe;" horiz-adv-x="1146" d="M164 -428v2011h133v-549q172 107 336 107q204 0 301.5 -124.5t97.5 -391.5v-123q0 -144 -32.5 -247.5t-96 -164.5t-147.5 -89t-195 -28q-77 0 -264 27v-428h-133zM297 113q189 -25 262 -25q174 0 257 92.5t83 321.5v123q0 214 -65.5 305.5t-215.5 91.5q-131 0 -321 -94 v-815z" />
<glyph unicode="&#xff;" horiz-adv-x="1064" d="M20 -328q107 -8 191 -8q51 0 84 11t61.5 44.5t49 77.5t51.5 129l26 76l-430 1110h148l266 -713q44 -128 80 -249h4q34 124 76 251l243 711h144l-424 -1200q-29 -81 -51 -132t-53.5 -99.5t-67.5 -74t-86.5 -40.5t-116.5 -15q-83 0 -195 15v106zM254 1315v244h123v-244 h-123zM723 1315v244h123v-244h-123z" />
<glyph unicode="&#x152;" horiz-adv-x="1968" d="M113 664v192q0 343 151.5 516.5t435.5 173.5q131 0 306 -24h843v-123h-739v-543h690v-125h-690v-610h739v-121h-833q-201 -29 -316 -29q-283 0 -435 175t-152 518zM252 664q0 -570 448 -570q122 0 273 21v1286q-153 22 -273 22q-448 0 -448 -567v-192z" />
<glyph unicode="&#x153;" horiz-adv-x="1935" d="M109 481v150q0 244 115.5 377t346.5 133q146 0 246.5 -57.5t151.5 -159.5q51 103 150.5 160t244.5 57q236 0 350.5 -141.5t114.5 -397.5v-92h-793v-35q0 -97 17.5 -165.5t59 -120.5t115 -77.5t181.5 -25.5q159 0 383 37v-109q-182 -41 -387 -41q-337 0 -440 215 q-106 -217 -394 -217q-231 0 -346.5 133t-115.5 377zM242 481q2 -199 80.5 -296t248.5 -97q171 0 250.5 97t79.5 296v150q0 201 -79.5 297t-250.5 96q-170 0 -248.5 -97t-80.5 -296v-150zM1036 623h654v28q0 373 -326 373q-78 0 -137.5 -21.5t-94.5 -55t-57 -82t-30 -94.5 t-9 -99v-49z" />
<glyph unicode="&#x178;" horiz-adv-x="1230" d="M55 1522h150l307 -568q74 -141 102 -209h9q15 36 106 209l305 568h142l-492 -908v-614h-137v614zM324 1657v244h122v-244h-122zM793 1657v244h122v-244h-122z" />
<glyph unicode="&#x2c6;" horiz-adv-x="927" d="M96 1262l283 315h172l283 -315h-138l-233 237l-230 -237h-137z" />
<glyph unicode="&#x2dc;" horiz-adv-x="917" d="M70 1268v69q0 123 44 188.5t144 65.5q54 0 93.5 -19.5t94.5 -66.5l86 -80q40 -38 68.5 -54.5t63.5 -16.5q36 0 56 21t25 51.5t5 82.5v70h98v-70q0 -124 -41 -188t-141 -64q-54 0 -99 21.5t-98 69.5l-84 77q-41 39 -67 54.5t-60 15.5q-36 0 -56.5 -21.5t-26 -53 t-5.5 -83.5v-69h-100z" />
<glyph unicode="&#x2000;" horiz-adv-x="1010" />
<glyph unicode="&#x2001;" horiz-adv-x="2021" />
<glyph unicode="&#x2002;" horiz-adv-x="1010" />
<glyph unicode="&#x2003;" horiz-adv-x="2021" />
<glyph unicode="&#x2004;" horiz-adv-x="673" />
<glyph unicode="&#x2005;" horiz-adv-x="505" />
<glyph unicode="&#x2006;" horiz-adv-x="336" />
<glyph unicode="&#x2007;" horiz-adv-x="336" />
<glyph unicode="&#x2008;" horiz-adv-x="252" />
<glyph unicode="&#x2009;" horiz-adv-x="404" />
<glyph unicode="&#x200a;" horiz-adv-x="112" />
<glyph unicode="&#x2010;" horiz-adv-x="808" d="M154 537v114h501v-114h-501z" />
<glyph unicode="&#x2011;" horiz-adv-x="808" d="M154 537v114h501v-114h-501z" />
<glyph unicode="&#x2012;" horiz-adv-x="808" d="M154 537v114h501v-114h-501z" />
<glyph unicode="&#x2013;" horiz-adv-x="1019" d="M145 537v116h729v-116h-729z" />
<glyph unicode="&#x2014;" horiz-adv-x="1304" d="M145 537v116h1014v-116h-1014z" />
<glyph unicode="&#x2018;" horiz-adv-x="331" d="M41 1114l145 469h105l-107 -469h-143z" />
<glyph unicode="&#x2019;" horiz-adv-x="331" d="M41 1114l106 469h144l-144 -469h-106z" />
<glyph unicode="&#x201a;" horiz-adv-x="331" d="M41 -193l106 467h144l-144 -467h-106z" />
<glyph unicode="&#x201c;" horiz-adv-x="708" d="M41 1114l145 469h105l-107 -469h-143zM416 1114l145 469h107l-109 -469h-143z" />
<glyph unicode="&#x201d;" horiz-adv-x="708" d="M41 1114l109 469h143l-146 -469h-106zM418 1114l106 469h144l-146 -469h-104z" />
<glyph unicode="&#x201e;" horiz-adv-x="708" d="M41 -195l109 469h143l-146 -469h-106zM418 -195l106 469h144l-146 -469h-104z" />
<glyph unicode="&#x2022;" horiz-adv-x="1091" d="M274 756q0 112 80 191t191 79q113 0 191.5 -79t78.5 -191q0 -111 -79 -191t-191 -80q-110 0 -190.5 80.5t-80.5 190.5z" />
<glyph unicode="&#x2026;" horiz-adv-x="1572" d="M156 0v279h135v-279h-135zM719 0v279h135v-279h-135zM1282 0v279h133v-279h-133z" />
<glyph unicode="&#x202f;" horiz-adv-x="404" />
<glyph unicode="&#x2039;" horiz-adv-x="716" d="M115 584l327 422h160l-321 -422l321 -424h-160z" />
<glyph unicode="&#x203a;" horiz-adv-x="716" d="M115 160l323 424l-323 422h159l330 -422l-330 -424h-159z" />
<glyph unicode="&#x205f;" horiz-adv-x="505" />
<glyph unicode="&#x20ac;" horiz-adv-x="1304" d="M100 528v107h129q-10 144 -2 252h-127v108h140q15 129 53 226t90 158t124 99t147 53t167 15q187 0 357 -35v-112q-288 24 -351 24q-95 0 -164.5 -19t-129 -65.5t-97.5 -132t-55 -211.5h702l-30 -108h-686q-8 -105 2 -252h612l-29 -107h-569q18 -127 56.5 -213.5 t97.5 -133.5t128 -66t162 -19q111 0 351 25v-115q-187 -33 -357 -33q-91 0 -166.5 15.5t-146.5 54t-123.5 100.5t-90.5 159.5t-54 225.5h-140z" />
<glyph unicode="&#x2122;" horiz-adv-x="1775" d="M86 1430v92h641v-92h-264v-715h-113v715h-264zM866 715v807h135l181 -293q28 -43 59 -103h2q27 53 60 103l180 293h137v-807h-113v510q0 56 4 166h-2q-61 -109 -77 -134l-144 -225h-92l-141 223q-22 32 -80 136h-2q4 -110 4 -166v-510h-111z" />
<glyph unicode="&#x25fc;" horiz-adv-x="1116" d="M0 0v1116h1116v-1116h-1116z" />
</font>
</defs>
</svg>
